<svg width="188" height="53" viewBox="0 0 188 53" fill="none" xmlns="http://www.w3.org/2000/svg">
<path d="M83.44 18.446L79.722 34H75.058L72.572 23.594L70.064 34H65.4L61.682 18.446H65.774L67.776 29.71L70.504 18.446H74.618L77.346 29.71L79.37 18.446H83.44ZM97.0752 27.532C97.0752 27.84 97.0385 28.1773 96.9652 28.544H88.4512C88.4952 29.468 88.7299 30.1353 89.1552 30.546C89.5805 30.942 90.1232 31.14 90.7832 31.14C91.3405 31.14 91.8025 31.0007 92.1692 30.722C92.5359 30.4433 92.7779 30.084 92.8952 29.644H96.8772C96.7159 30.5093 96.3639 31.2867 95.8212 31.976C95.2785 32.6507 94.5892 33.186 93.7532 33.582C92.9172 33.9633 91.9859 34.154 90.9592 34.154C89.7565 34.154 88.6859 33.9047 87.7472 33.406C86.8232 32.8927 86.0972 32.1593 85.5692 31.206C85.0412 30.2527 84.7772 29.138 84.7772 27.862C84.7772 26.5713 85.0339 25.4567 85.5472 24.518C86.0752 23.5647 86.8085 22.8387 87.7472 22.34C88.6859 21.8267 89.7565 21.57 90.9592 21.57C92.1765 21.57 93.2472 21.8193 94.1712 22.318C95.0952 22.8167 95.8065 23.5207 96.3052 24.43C96.8185 25.3247 97.0752 26.3587 97.0752 27.532ZM93.2692 26.96C93.2839 26.1533 93.0639 25.552 92.6092 25.156C92.1692 24.7453 91.6192 24.54 90.9592 24.54C90.2699 24.54 89.6979 24.7453 89.2432 25.156C88.7885 25.5667 88.5319 26.168 88.4732 26.96H93.2692ZM109.178 18.446V21.438H102.798V24.848H107.726V27.708H102.798V34H99.0363V18.446H109.178ZM110.759 18.27C110.759 17.698 110.964 17.2287 111.375 16.862C111.785 16.4807 112.328 16.29 113.003 16.29C113.677 16.29 114.22 16.4807 114.631 16.862C115.041 17.2287 115.247 17.698 115.247 18.27C115.247 18.8273 115.041 19.2967 114.631 19.678C114.22 20.0447 113.677 20.228 113.003 20.228C112.328 20.228 111.785 20.0447 111.375 19.678C110.964 19.2967 110.759 18.8273 110.759 18.27ZM114.873 21.724V34H111.111V21.724H114.873ZM125.258 21.592C126.666 21.592 127.781 22.0613 128.602 23C129.438 23.9387 129.856 25.2293 129.856 26.872V34H126.094V27.312C126.094 26.4907 125.874 25.8527 125.434 25.398C125.009 24.9287 124.437 24.694 123.718 24.694C122.955 24.694 122.347 24.936 121.892 25.42C121.452 25.904 121.232 26.5933 121.232 27.488V34H117.47V21.724H121.232V23.968C121.584 23.2347 122.105 22.6553 122.794 22.23C123.498 21.8047 124.319 21.592 125.258 21.592ZM137.001 21.57C137.94 21.57 138.746 21.7827 139.421 22.208C140.096 22.6333 140.594 23.2127 140.917 23.946V21.724H144.657V34H140.917V31.778C140.594 32.5113 140.096 33.0907 139.421 33.516C138.746 33.9413 137.94 34.154 137.001 34.154C135.989 34.154 135.08 33.9047 134.273 33.406C133.481 32.8927 132.85 32.1593 132.381 31.206C131.926 30.2527 131.699 29.138 131.699 27.862C131.699 26.5713 131.926 25.4567 132.381 24.518C132.85 23.5647 133.481 22.8387 134.273 22.34C135.08 21.8267 135.989 21.57 137.001 21.57ZM138.211 24.87C137.404 24.87 136.752 25.134 136.253 25.662C135.769 26.19 135.527 26.9233 135.527 27.862C135.527 28.8007 135.769 29.534 136.253 30.062C136.752 30.59 137.404 30.854 138.211 30.854C139.003 30.854 139.648 30.5827 140.147 30.04C140.66 29.4973 140.917 28.7713 140.917 27.862C140.917 26.938 140.66 26.212 140.147 25.684C139.648 25.1413 139.003 24.87 138.211 24.87ZM155.035 21.592C156.443 21.592 157.558 22.0613 158.379 23C159.215 23.9387 159.633 25.2293 159.633 26.872V34H155.871V27.312C155.871 26.4907 155.651 25.8527 155.211 25.398C154.786 24.9287 154.214 24.694 153.495 24.694C152.733 24.694 152.124 24.936 151.669 25.42C151.229 25.904 151.009 26.5933 151.009 27.488V34H147.247V21.724H151.009V23.968C151.361 23.2347 151.882 22.6553 152.571 22.23C153.275 21.8047 154.097 21.592 155.035 21.592ZM167.658 21.57C169.242 21.57 170.57 22.01 171.64 22.89C172.711 23.7553 173.386 24.9507 173.664 26.476H169.682C169.565 25.948 169.323 25.5373 168.956 25.244C168.59 24.9507 168.128 24.804 167.57 24.804C166.91 24.804 166.368 25.068 165.942 25.596C165.517 26.1093 165.304 26.8647 165.304 27.862C165.304 28.8593 165.517 29.622 165.942 30.15C166.368 30.6633 166.91 30.92 167.57 30.92C168.128 30.92 168.59 30.7733 168.956 30.48C169.323 30.1867 169.565 29.776 169.682 29.248H173.664C173.386 30.7733 172.711 31.976 171.64 32.856C170.57 33.7213 169.242 34.154 167.658 34.154C166.456 34.154 165.385 33.9047 164.446 33.406C163.522 32.8927 162.796 32.1593 162.268 31.206C161.74 30.2527 161.476 29.138 161.476 27.862C161.476 26.5713 161.733 25.4567 162.246 24.518C162.774 23.5647 163.508 22.8387 164.446 22.34C165.385 21.8267 166.456 21.57 167.658 21.57ZM187.288 27.532C187.288 27.84 187.251 28.1773 187.178 28.544H178.664C178.708 29.468 178.943 30.1353 179.368 30.546C179.793 30.942 180.336 31.14 180.996 31.14C181.553 31.14 182.015 31.0007 182.382 30.722C182.749 30.4433 182.991 30.084 183.108 29.644H187.09C186.929 30.5093 186.577 31.2867 186.034 31.976C185.491 32.6507 184.802 33.186 183.966 33.582C183.13 33.9633 182.199 34.154 181.172 34.154C179.969 34.154 178.899 33.9047 177.96 33.406C177.036 32.8927 176.31 32.1593 175.782 31.206C175.254 30.2527 174.99 29.138 174.99 27.862C174.99 26.5713 175.247 25.4567 175.76 24.518C176.288 23.5647 177.021 22.8387 177.96 22.34C178.899 21.8267 179.969 21.57 181.172 21.57C182.389 21.57 183.46 21.8193 184.384 22.318C185.308 22.8167 186.019 23.5207 186.518 24.43C187.031 25.3247 187.288 26.3587 187.288 27.532ZM183.482 26.96C183.497 26.1533 183.277 25.552 182.822 25.156C182.382 24.7453 181.832 24.54 181.172 24.54C180.483 24.54 179.911 24.7453 179.456 25.156C179.001 25.5667 178.745 26.168 178.686 26.96H183.482Z" fill="#0B1131"/>
<mask id="mask0_2_299" style="mask-type:alpha" maskUnits="userSpaceOnUse" x="0" y="0" width="34" height="53">
<path d="M0 52.7271L7.21813 52.7271C21.7783 52.7271 33.5817 40.9237 33.5817 26.3635L33.5817 16.7908C33.5817 7.51748 26.0642 -5.11272e-05 16.7908 -5.19379e-05C7.51752 -5.27486e-05 3.95235e-06 7.51746 3.14165e-06 16.7908L0 52.7271Z" fill="#C4C4C4"/>
</mask>
<g mask="url(#mask0_2_299)">
<rect x="-28.9498" y="-34.0447" width="77.1993" height="115.799" fill="url(#paint0_linear_2_299)"/>
</g>
<mask id="mask1_2_299" style="mask-type:alpha" maskUnits="userSpaceOnUse" x="0" y="14" width="43" height="39">
<path d="M0 52.7273L23.9704 52.7273C34.4801 52.7273 43 44.2074 43 33.6977C43 23.1879 34.4801 14.6681 23.9704 14.6681L21.5 14.6681C9.62588 14.6681 2.48572e-06 24.2939 1.44766e-06 36.168L0 52.7273Z" fill="#C4C4C4"/>
</mask>
<g mask="url(#mask1_2_299)">
<rect x="-64.6928" y="-2.16162" width="107.693" height="71.7953" fill="url(#paint1_linear_2_299)"/>
</g>
<defs>
<linearGradient id="paint0_linear_2_299" x1="9.64987" y1="-34.0447" x2="9.64987" y2="81.7542" gradientUnits="userSpaceOnUse">
<stop stop-color="#3029D9"/>
<stop offset="1" stop-color="#3029D9" stop-opacity="0"/>
</linearGradient>
<linearGradient id="paint1_linear_2_299" x1="-10.8463" y1="-2.16162" x2="-10.8463" y2="69.6337" gradientUnits="userSpaceOnUse">
<stop stop-color="#3029D9"/>
<stop offset="1" stop-color="#3029D9" stop-opacity="0"/>
</linearGradient>
</defs>
</svg>
