<svg width="44" height="44" viewBox="0 0 44 44" fill="none" xmlns="http://www.w3.org/2000/svg">
<path d="M15.6965 22.628V30.118" stroke="white" stroke-width="4" stroke-linecap="round" stroke-linejoin="round"/>
<path d="M19.5181 26.3734H11.8758" stroke="white" stroke-width="4" stroke-linecap="round" stroke-linejoin="round"/>
<path d="M28.7322 22.8561H28.5182" stroke="white" stroke-width="4" stroke-linecap="round" stroke-linejoin="round"/>
<path d="M32.3592 30.0052H32.1452" stroke="white" stroke-width="4" stroke-linecap="round" stroke-linejoin="round"/>
<path opacity="0.4" d="M14.1443 2C14.1443 3.48097 15.3693 4.68152 16.8804 4.68152H18.9933C21.3246 4.68983 23.2129 6.54052 23.2235 8.82532V10.1754" stroke="white" stroke-width="4" stroke-linecap="round" stroke-linejoin="round"/>
<path fill-rule="evenodd" clip-rule="evenodd" d="M30.8566 41.9252C24.8462 42.027 18.9461 42.0229 13.1455 41.9252C6.707 41.9252 2 37.3328 2 31.0226V21.7234C2 15.4132 6.707 10.8208 13.1455 10.8208C18.9779 10.7211 24.8823 10.7232 30.8566 10.8208C37.2951 10.8208 42 15.4153 42 21.7234V31.0226C42 37.3328 37.2951 41.9252 30.8566 41.9252Z" stroke="white" stroke-width="4" stroke-linecap="round" stroke-linejoin="round"/>
</svg>
