<svg width="44" height="35" viewBox="0 0 44 35" fill="none" xmlns="http://www.w3.org/2000/svg">
<path opacity="0.4" d="M33.0236 15.1535C36.1486 15.1535 38.6837 12.6202 38.6837 9.49524C38.6837 6.37023 36.1486 3.83698 33.0236 3.83698" stroke="white" stroke-width="4" stroke-linecap="round" stroke-linejoin="round"/>
<path d="M35.6258 21.3024C36.559 21.3667 37.4868 21.499 38.4004 21.7046C39.6697 21.9531 41.1964 22.4734 41.7399 23.6122C42.0867 24.3416 42.0867 25.1907 41.7399 25.9219C41.1982 27.0607 39.6697 27.5792 38.4004 27.8402" stroke="white" stroke-width="4" stroke-linecap="round" stroke-linejoin="round"/>
<path opacity="0.4" d="M10.9759 15.1535C7.85092 15.1535 5.31587 12.6202 5.31587 9.49524C5.31587 6.37023 7.85092 3.83698 10.9759 3.83698" stroke="white" stroke-width="4" stroke-linecap="round" stroke-linejoin="round"/>
<path d="M8.37382 21.3024C7.4406 21.3667 6.51276 21.499 5.59921 21.7046C4.3299 21.9531 2.80315 22.4734 2.26146 23.6122C1.91285 24.3416 1.91285 25.1907 2.26146 25.9219C2.80136 27.0607 4.3299 27.5792 5.59921 27.8402" stroke="white" stroke-width="4" stroke-linecap="round" stroke-linejoin="round"/>
<path fill-rule="evenodd" clip-rule="evenodd" d="M21.9906 22.5209C28.3229 22.5209 33.7326 23.4791 33.7326 27.3139C33.7326 31.1468 28.3586 32.1408 21.9906 32.1408C15.6566 32.1408 10.2486 31.1826 10.2486 27.3478C10.2486 23.5131 15.6226 22.5209 21.9906 22.5209Z" stroke="white" stroke-width="4" stroke-linecap="round" stroke-linejoin="round"/>
<path opacity="0.4" fill-rule="evenodd" clip-rule="evenodd" d="M21.9906 17.0512C17.8144 17.0512 14.4659 13.7027 14.4659 9.52469C14.4659 5.34848 17.8144 2 21.9906 2C26.1668 2 29.5153 5.34848 29.5153 9.52469C29.5153 13.7027 26.1668 17.0512 21.9906 17.0512Z" stroke="white" stroke-width="4" stroke-linecap="round" stroke-linejoin="round"/>
</svg>
