<svg width="172" height="172" viewBox="0 0 172 172" fill="none" xmlns="http://www.w3.org/2000/svg">
<g filter="url(#filter0_d_2_352)">
<path d="M122 76C122 56.1178 105.882 40 86 40C66.1177 40 50 56.1178 50 76V112H86C105.882 112 122 95.8823 122 76Z" fill="#3029D9"/>
</g>
<path opacity="0.4" d="M97.0236 74.1535C100.149 74.1535 102.684 71.6202 102.684 68.4952C102.684 65.3702 100.149 62.837 97.0236 62.837" stroke="white" stroke-width="4" stroke-linecap="round" stroke-linejoin="round"/>
<path d="M99.6258 80.3024C100.559 80.3667 101.487 80.499 102.4 80.7046C103.67 80.9531 105.196 81.4734 105.74 82.6122C106.087 83.3416 106.087 84.1907 105.74 84.9219C105.198 86.0607 103.67 86.5792 102.4 86.8402" stroke="white" stroke-width="4" stroke-linecap="round" stroke-linejoin="round"/>
<path opacity="0.4" d="M74.9759 74.1535C71.8509 74.1535 69.3159 71.6202 69.3159 68.4952C69.3159 65.3702 71.8509 62.837 74.9759 62.837" stroke="white" stroke-width="4" stroke-linecap="round" stroke-linejoin="round"/>
<path d="M72.3738 80.3024C71.4406 80.3667 70.5128 80.499 69.5992 80.7046C68.3299 80.9531 66.8032 81.4734 66.2615 82.6122C65.9128 83.3416 65.9128 84.1907 66.2615 84.9219C66.8014 86.0607 68.3299 86.5792 69.5992 86.8402" stroke="white" stroke-width="4" stroke-linecap="round" stroke-linejoin="round"/>
<path fill-rule="evenodd" clip-rule="evenodd" d="M85.9906 81.5209C92.3229 81.5209 97.7326 82.4791 97.7326 86.3139C97.7326 90.1468 92.3586 91.1408 85.9906 91.1408C79.6566 91.1408 74.2486 90.1826 74.2486 86.3478C74.2486 82.5131 79.6226 81.5209 85.9906 81.5209Z" stroke="white" stroke-width="4" stroke-linecap="round" stroke-linejoin="round"/>
<path opacity="0.4" fill-rule="evenodd" clip-rule="evenodd" d="M85.9906 76.0512C81.8144 76.0512 78.4659 72.7027 78.4659 68.5247C78.4659 64.3485 81.8144 61 85.9906 61C90.1668 61 93.5153 64.3485 93.5153 68.5247C93.5153 72.7027 90.1668 76.0512 85.9906 76.0512Z" stroke="white" stroke-width="4" stroke-linecap="round" stroke-linejoin="round"/>
<defs>
<filter id="filter0_d_2_352" x="0" y="0" width="172" height="172" filterUnits="userSpaceOnUse" color-interpolation-filters="sRGB">
<feFlood flood-opacity="0" result="BackgroundImageFix"/>
<feColorMatrix in="SourceAlpha" type="matrix" values="0 0 0 0 0 0 0 0 0 0 0 0 0 0 0 0 0 0 127 0" result="hardAlpha"/>
<feOffset dy="10"/>
<feGaussianBlur stdDeviation="25"/>
<feColorMatrix type="matrix" values="0 0 0 0 0.188235 0 0 0 0 0.160784 0 0 0 0 0.85098 0 0 0 0.3 0"/>
<feBlend mode="normal" in2="BackgroundImageFix" result="effect1_dropShadow_2_352"/>
<feBlend mode="normal" in="SourceGraphic" in2="effect1_dropShadow_2_352" result="shape"/>
</filter>
</defs>
</svg>
